<?xml version="1.0" encoding="utf-8"?>
<svg version="1.1" xmlns="http://www.w3.org/2000/svg" xmlns:xlink="http://www.w3.org/1999/xlink" x="0px" y="0px"
	 viewBox="0 0 60 26">
<style type="text/css">
	.st0{fill:#FFF;}
</style>
	<path class="st0" d="M0.4,3.6h3.7c2.2,0,3.6,0.1,4.3,0.3C9.1,4,9.7,4.3,10.3,4.7s1,1,1.3,1.6c0.3,0.6,0.5,1.4,0.5,2.2
		c0,1.3-0.3,2.3-1,3.1c-0.7,0.8-1.6,1.3-2.6,1.5c-1,0.2-2.7,0.3-4.8,0.3H2.3v8.7H0.4V3.6z M2.3,5.4v6.4h3.1c1.9,0,3.1-0.3,3.8-0.9
		c0.6-0.6,0.9-1.4,0.9-2.3c0-2.1-1.5-3.1-4.5-3.1H2.3z"/>
	<path class="st0" d="M14.9,15.4c0-2,0.7-3.8,2.1-5.2c1.4-1.4,3.1-2.2,5.1-2.2s3.7,0.7,5.1,2.2c1.4,1.4,2.1,3.2,2.1,5.2
		s-0.7,3.7-2.1,5.2c-1.4,1.4-3.1,2.1-5.1,2.1c-2,0-3.7-0.7-5.1-2.1C15.6,19.1,14.9,17.4,14.9,15.4z M27.5,15.4c0-1.5-0.5-2.8-1.6-4
		c-1.1-1.1-2.3-1.7-3.8-1.7c-1.5,0-2.7,0.6-3.8,1.7c-1.1,1.1-1.6,2.4-1.6,4s0.5,2.9,1.5,3.9c1,1.1,2.3,1.6,3.8,1.6s2.8-0.5,3.8-1.6
		C26.9,18.3,27.5,17,27.5,15.4z"/>
	<path class="st0" d="M31.7,4.6c0-0.4,0.1-0.7,0.4-1c0.3-0.3,0.6-0.4,1-0.4c0.4,0,0.8,0.1,1,0.4s0.4,0.6,0.4,1s-0.1,0.8-0.4,1
		S33.6,6,33.2,6c-0.4,0-0.8-0.1-1-0.4C31.9,5.3,31.7,5,31.7,4.6z M32.3,8.4h1.8v13.8h-1.8V8.4z"/>
	<path class="st0" d="M37.8,8.4h1.8v2.5C41,9,42.7,8.1,44.7,8.1c1,0,2,0.3,2.8,0.8s1.4,1.3,1.8,2.2s0.5,2.2,0.5,4v7.1h-1.8v-6.6
		c0-1.6-0.1-2.7-0.2-3.3c-0.1-0.6-0.4-1.1-0.7-1.5c-0.3-0.4-0.7-0.7-1.2-0.9s-1-0.3-1.7-0.3s-1.3,0.2-2,0.5s-1.2,0.8-1.6,1.4
		c-0.5,0.6-0.8,1.2-0.9,1.8s-0.2,1.9-0.2,3.8v5.1h-1.8V8.4z"/>
	<path class="st0" d="M57,20c0,0.5,0.1,0.7,0.2,0.8c0.1,0.1,0.4,0.1,0.9,0.1h1.1v1.5c-0.7,0.1-1.3,0.2-1.7,0.2
		c-0.8,0-1.4-0.2-1.7-0.6c-0.4-0.4-0.5-1-0.5-1.8V9.9h-2.4V8.4h2.4V3.1H57v5.3h2.8v1.5H57V20z"/>
</svg>
