<?xml version="1.0" standalone="no"?>
<!DOCTYPE svg PUBLIC "-//W3C//DTD SVG 1.1//EN" "http://www.w3.org/Graphics/SVG/1.1/DTD/svg11.dtd">
<svg width="64" height="64" viewBox="0 0 1024 1024" version="1.1" xmlns="http://www.w3.org/2000/svg" xmlns:xlink="http://www.w3.org/1999/xlink">
  <path fill="#4dbf9f" d="M828.294315 673.698185c-6.970201 120.355628-72.949592 215.236336-192.235937 272.692177-54.206452 26.114321-112.939291 31.27469-172.571626 23.273138-106.964317-14.348607-184.427651-72.530549-238.083206-163.674189-32.278948-54.842242-42.576205-115.525797-38.053432-178.718191 4.602247-64.272513 33.803397-119.013607 66.37134-172.793791C290.627936 390.428787 490.856395 52.253929 490.856395 52.253929S674.333974 329.83193 726.181504 404.389057c20.991883 30.190958 42.361265 60.250063 61.138723 91.810135C817.249283 546.513241 829.844051 601.828713 828.294315 673.698185L828.294315 673.698185zM346.727307 729.196084c0.050574 30.776173 15.188499 57.735805 38.960154 71.556996 33.268756 19.342804 73.719041 13.972914 99.291496-13.185402 26.383448-28.021689 30.207214-68.415981 8.622892-100.604618-20.683019-30.841197-66.02274-104.975669-66.02274-104.975669s-46.12362 74.378311-67.077572 105.029856C351.425284 700.298379 346.994627 715.241233 346.727307 729.196084L346.727307 729.196084z" />
</svg>